<svg width="23" height="24" viewBox="0 0 23 24" fill="none" xmlns="http://www.w3.org/2000/svg">
<path d="M5.44465 5.2174L5.9119 2.7688C6.00709 2.26989 6.2644 1.82096 6.64002 1.49845C7.01564 1.17595 7.48635 0.999799 7.972 1H15.028C15.5137 0.999799 15.9844 1.17595 16.36 1.49845C16.7356 1.82096 16.9929 2.26989 17.0881 2.7688L17.5553 5.2174C17.6287 5.60107 17.8045 5.95505 18.0623 6.23818C18.3201 6.52131 18.6493 6.72196 19.0117 6.8168C19.8653 7.04052 20.6231 7.55675 21.1646 8.28343C21.706 9.01011 22.0001 9.90554 22 10.8274V18.6C22 19.767 21.5575 20.8861 20.7698 21.7113C19.9822 22.5364 18.9139 23 17.8 23H5.2C4.08609 23 3.0178 22.5364 2.23015 21.7113C1.4425 20.8861 1 19.767 1 18.6V10.8274C0.99992 9.90554 1.29398 9.01011 1.83543 8.28343C2.37688 7.55675 3.13465 7.04052 3.9883 6.8168C4.35067 6.72196 4.6799 6.52131 4.9377 6.23818C5.19551 5.95505 5.37131 5.60107 5.44465 5.2174V5.2174Z" stroke="#FF5C4C" stroke-width="2" stroke-linecap="round" stroke-linejoin="round"/>
<path d="M11.5 18.6C13.8196 18.6 15.7 16.6301 15.7 14.2C15.7 11.77 13.8196 9.80005 11.5 9.80005C9.18045 9.80005 7.30005 11.77 7.30005 14.2C7.30005 16.6301 9.18045 18.6 11.5 18.6Z" stroke="#FF5C4C" stroke-width="2" stroke-linecap="round" stroke-linejoin="round"/>
<path d="M10.45 5.40002H12.55" stroke="#FF5C4C" stroke-width="2" stroke-linecap="round" stroke-linejoin="round"/>
</svg>
