<svg width="42" height="22" viewBox="0 0 42 22" fill="none" xmlns="http://www.w3.org/2000/svg">
<path d="M7.35 1.83333C7.35 0.819271 8.28844 0 9.45 0H10.5C11.6616 0 12.6 0.819271 12.6 1.83333V20.1667C12.6 21.1807 11.6616 22 10.5 22H9.45C8.28844 22 7.35 21.1807 7.35 20.1667V18.3333H4.2C3.03844 18.3333 2.1 17.5141 2.1 16.5V12.8333C0.938437 12.8333 0 12.0141 0 11C0 9.98594 0.938437 9.16667 2.1 9.16667V5.5C2.1 4.48594 3.03844 3.66667 4.2 3.66667H7.35V1.83333ZM34.65 1.83333V3.66667H37.8C38.9616 3.66667 39.9 4.48594 39.9 5.5V9.16667C41.0616 9.16667 42 9.98594 42 11C42 12.0141 41.0616 12.8333 39.9 12.8333V16.5C39.9 17.5141 38.9616 18.3333 37.8 18.3333H34.65V20.1667C34.65 21.1807 33.7116 22 32.55 22H31.5C30.3384 22 29.4 21.1807 29.4 20.1667V1.83333C29.4 0.819271 30.3384 0 31.5 0H32.55C33.7116 0 34.65 0.819271 34.65 1.83333ZM27.3 9.16667V12.8333H14.7V9.16667H27.3Z" fill="#FF5C4C"/>
</svg>
