<svg width="26" height="22" viewBox="0 0 26 22" fill="none" xmlns="http://www.w3.org/2000/svg">
<path d="M3.5 22H1.5C1.10218 22 0.720644 21.8841 0.43934 21.6778C0.158035 21.4715 0 21.1917 0 20.9V14.3C0 14.0083 0.158035 13.7285 0.43934 13.5222C0.720644 13.3159 1.10218 13.2 1.5 13.2H3.5C3.89782 13.2 4.27936 13.3159 4.56066 13.5222C4.84196 13.7285 5 14.0083 5 14.3V20.9C5 21.1917 4.84196 21.4715 4.56066 21.6778C4.27936 21.8841 3.89782 22 3.5 22ZM17.5 22H15.5C15.1022 22 14.7206 21.8841 14.4393 21.6778C14.158 21.4715 14 21.1917 14 20.9V9.9C14 9.60826 14.158 9.32847 14.4393 9.12218C14.7206 8.91589 15.1022 8.8 15.5 8.8H17.5C17.8978 8.8 18.2794 8.91589 18.5607 9.12218C18.842 9.32847 19 9.60826 19 9.9V20.9C19 21.1917 18.842 21.4715 18.5607 21.6778C18.2794 21.8841 17.8978 22 17.5 22ZM24.5 22H22.5C22.1022 22 21.7206 21.8841 21.4393 21.6778C21.158 21.4715 21 21.1917 21 20.9V4.76667C21 4.47493 21.158 4.19514 21.4393 3.98885C21.7206 3.78256 22.1022 3.66667 22.5 3.66667H24.5C24.8978 3.66667 25.2794 3.78256 25.5607 3.98885C25.842 4.19514 26 4.47493 26 4.76667V20.9C26 21.1917 25.842 21.4715 25.5607 21.6778C25.2794 21.8841 24.8978 22 24.5 22ZM10.5 22H8.5C8.10218 22 7.72064 21.8841 7.43934 21.6778C7.15804 21.4715 7 21.1917 7 20.9V1.1C7 0.808262 7.15804 0.528473 7.43934 0.322183C7.72064 0.115893 8.10218 0 8.5 0H10.5C10.8978 0 11.2794 0.115893 11.5607 0.322183C11.842 0.528473 12 0.808262 12 1.1V20.9C12 21.1917 11.842 21.4715 11.5607 21.6778C11.2794 21.8841 10.8978 22 10.5 22Z" fill="#FF5C4C"/>
</svg>
